# AST/ASF file generated using VICON BodyLanguage
# -----------------------------------------------
:version 1.10
:name VICON
:units
  mass 1.0
  length 0.45
  angle deg
:documentation
   .ast/.asf automatically generated from VICON data using
   VICON BodyBuilder and BodyLanguage model FoxedUp or BRILLIANT.MOD
:root
   order TX TY TZ RX RY RZ
   axis XYZ
   position 0 0 0  
   orientation 0 0 0 
:bonedata
  begin
     id 1 
     name lhipjoint
     direction 0.54267 -0.795011 0.271047 
     length 2.39899 
     axis 0 0 0  XYZ
  end
  begin
     id 2 
     name lfemur
     direction 0.34202 -0.939693 0  
     length 7.49701  
     axis 0 0 20  XYZ
    dof rx ry rz
    limits (-160.0 20.0)
           (-70.0 70.0)
           (-60.0 70.0)
  end
  begin
     id 3 
     name ltibia
     direction 0.34202 -0.939693 0   
     length 8.1668   
     axis 0 0 20   XYZ
    dof rx
    limits (-10.0 170.0)
  end
  begin
     id 4 
     name lfoot
     direction 0.0736283 -0.202292 0.976554   
     length 2.13544   
     axis -90 7.62852e-016 20   XYZ
    dof rx rz
    limits (-45.0 90.0)
           (-70.0 20.0)
  end
  begin
     id 5 
     name ltoes
     direction 1.53557e-011 -4.22024e-011 1   
     length 1.07411   
     axis -90 7.62852e-016 20   XYZ
    dof rx
    limits (-90.0 20.0)
  end
  begin
     id 6 
     name rhipjoint
     direction -0.538061 -0.797813 0.272002   
     length 2.39057  
     axis 0 0 0  XYZ 
  end
  begin
     id 7 
     name rfemur
     direction -0.34202 -0.939693 0   
     length 7.50152   
     axis 0 0 -20   XYZ
    dof rx ry rz
    limits (-160.0 20.0)
           (-70.0 70.0)
           (-70.0 60.0)
  end
  begin
     id 8 
     name rtibia
     direction -0.34202 -0.939693 0   
     length 8.05793   
     axis 0 0 -20   XYZ
    dof rx
    limits (-10.0 170.0)
 end
 begin
     id 9 
     name rfoot
     direction -0.0765195 -0.210236 0.974652   
     length 2.28698  
     axis -90 -7.62852e-016 -20   XYZ
    dof rx rz
    limits (-45.0 90.0)
           (-20.0 70.0)
  end
  begin
     id 10 
     name rtoes
     direction -1.53542e-011 -4.21847e-011 1   
     length 1.14762   
     axis -90 -7.62852e-016 -20   XYZ
    dof rx
    limits (-90.0 20.0)
  end
  begin
     id 11 
     name lowerback
     direction -0.0217239 0.996592 -0.0795765   
     length 2.08176   
     axis 0 0 0   XYZ
    dof rx ry rz
    limits (-20.0 45.0)
           (-30.0 30.0)
           (-30.0 30.0)
  end
  begin
     id 12 
     name upperback
     direction -0.00563773 0.999651 -0.0258155   
     length 2.08898   
     axis 0 0 0   XYZ
    dof rx ry rz
    limits (-20.0 45.0)
           (-30.0 30.0)
           (-30.0 30.0)
  end
  begin
     id 13 
     name thorax
     direction 0.0032706 0.999923 0.0119599   
     length 2.0968   
     axis 0 0 0   XYZ
    dof rx ry rz
    limits (-20.0 45.0)
           (-30.0 30.0)
           (-30.0 30.0)
  end
  begin
     id 14 
     name lowerneck
     direction -0.0285886 0.99568 0.0883427   
     length 1.81272   
     axis 0 0 0   XYZ
    dof rx ry rz
    limits (-20.0 45.0)
           (-30.0 30.0)
           (-30.0 30.0)
  end
  begin
     id 15 
     name upperneck
     direction 0.0807535 0.97985 -0.18268   
     length 1.82518   
     axis 0 0 0   XYZ
    dof rx ry rz
    limits (-20.0 45.0)
           (-30.0 30.0)
           (-30.0 30.0)
  end
  begin
     id 16
     name head
     direction 0.0236605 0.997053 -0.0729767  
     length 1.84443  
     axis 0 0 0   XYZ
    dof rx ry rz
    limits (-20.0 45.0)
           (-30.0 30.0)
           (-30.0 30.0)
  end
  begin
     id 17 
     name lclavicle
     direction 0.918986 0.39378 -0.0200683  
     length 3.27822  
     axis 0 0 0   XYZ
    dof ry rz
    limits (-20.0 10.0)
           (0.0 20.0)
  end
  begin
     id 18 
     name lhumerus
     direction 1 -4.4897e-011 2.09544e-027   
     length 5.5568   
     axis 180 -30 -90   XYZ
    dof rx ry rz
    limits (-60.0 90.0)
           (-90.0 90.0)
           (-90.0 90.0)
  end
  begin
     id 19
     name lradius
     direction 1 -4.48957e-011 -1.27696e-026   
     length 3.63979   
     axis 180 -30 -90   XYZ
    dof rx
    limits (-10.0 170.0)
  end
  begin
     id 20
     name lwrist
     direction 1 -4.49001e-011 -1.49001e-026   
     length 1.8199   
     axis 9.0955e-015 90 90   XYZ
    dof ry
    limits (-180.0 0.0)
 end
  begin
     id 21 
     name lhand
     direction 1 -4.48709e-011 -2.9758e-026   
     length 0.569419   
     axis 1.90115e-014 90 90   XYZ
    dof rx rz
    limits (-90.0 90.0)
           (-45.0 45.0)
  end
  begin
     id 22 
     name lfingers
     direction 1 -4.49175e-011 -5.96505e-026   
     length 0.45908   
     axis 3.80223e-014 90 90   XYZ
    dof rx
    limits (0.0 90.0)
  end
  begin
     id 23
     name lthumb
     direction 0.707107 -6.34864e-011 0.707107   
     length 0.65915   
     axis -90 45 -3.84942e-014   XYZ
    dof rx rz
    limits (-45.0 45.0)
           (-45.0 45.0)
  end
  begin
     id 24 
     name rclavicle
     direction -0.911913 0.396426 -0.106115   
     length 3.46301  
     axis 0 0 0   XYZ 
    dof ry rz
    limits (-10.0 20.0)
           (-20.0 0.0)
  end
  begin
     id 25 
     name rhumerus
     direction -1 -4.48965e-011 7.78516e-028  
     length 5.34339   
     axis 180 30 90   XYZ
    dof rx ry rz
    limits (-90.0 60.0)
           (-90.0 90.0)
           (-90.0 90.0)
  end
  begin
     id 26 
     name rradius
     direction -1 -4.48948e-011 -5.79823e-027   
     length 3.65101   
     axis 180 30 90   XYZ
    dof rx
    limits (-10.0 170.0)
  end
  begin
     id 27 
     name rwrist
     direction -1 -4.48995e-011 -1.48996e-026   
     length 1.8255   
     axis 9.0955e-015 -90 -90   XYZ
    dof ry
    limits (-180.0 0.0)
  end
  begin
     id 28
     name rhand
     direction -1 -4.48957e-011 -2.97937e-026   
     length 0.694249   
     axis 1.90115e-014 -90 -90   XYZ
    dof rx rz
    limits (-90.0 90.0)
           (-45.0 45.0)
  end
  begin
     id 29
     name rfingers
     direction -1 -4.4898e-011 -5.95943e-026   
     length 0.559721   
     axis 3.80223e-014 -90 -90   XYZ
    dof rx
    limits (0.0 90.0)
  end
  begin
     id 30
     name rthumb
     direction -0.707107 -6.34969e-011 0.707107   
     length 0.803651   
     axis -90 -45 3.84942e-014   XYZ
    dof rx rz
    limits (-45.0 45.0)
           (-45.0 45.0)
  end
:hierarchy
  begin
    root lhipjoint rhipjoint lowerback
    lhipjoint lfemur
    lfemur ltibia
    ltibia lfoot
    lfoot ltoes
    rhipjoint rfemur
    rfemur rtibia
    rtibia rfoot
    rfoot rtoes
    lowerback upperback
    upperback thorax
    thorax lowerneck lclavicle rclavicle
    lowerneck upperneck
    upperneck head
    lclavicle lhumerus
    lhumerus lradius
    lradius lwrist
    lwrist lhand lthumb
    lhand lfingers
    rclavicle rhumerus
    rhumerus rradius
    rradius rwrist
    rwrist rhand rthumb
    rhand rfingers
  end

#!OML:ASF H:\Terrain\Walking\May29\JustinRory\rory.ASF
:FULLY-SPECIFIED
:DEGREES
315
root 12.2815 16.218 -11.2228 -15.8128 51.8237 -10.3925
lowerback 18.4288 2.20874 0.785035
upperback 7.87409 3.35863 1.45149
thorax -1.90721 1.7842 0.425598
lowerneck -0.789441 -20.1503 -14.331
upperneck -0.752068 -28.229 26.5743
head 5.95231 -13.7752 7.57686
rclavicle 3.32964e-014 7.95139e-016
rhumerus 89.5816 -72.4476 -116.419
rradius 9.96812
rwrist 52.5167
rhand -21.1385 15.4407
rfingers 7.12502
rthumb 5.24062 -14.4745
lclavicle 3.32964e-014 7.95139e-016
lhumerus -41.1585 12.9171 44.8569
lradius 45.4297
lwrist 8.73587
lhand -28.8158 21.2602
lfingers 7.12502
lthumb -2.17383 51.2289
rfemur -23.8372 -1.89858 4.50672
rtibia 43.9654
rfoot -3.29567 -11.0022
rtoes -19.3939
lfemur -33.831 2.5004 -16.8922
ltibia 75.4007
lfoot -23.6603 13.7955
ltoes 5.53444
316
root 12.2886 16.2403 -11.1825 -15.9151 51.1481 -10.3543
lowerback 18.5388 2.29647 1.06744
upperback 8.11808 3.53517 1.66003
thorax -1.70068 1.88035 0.454795
lowerneck -1.41835 -20.1449 -14.0803
upperneck -0.461095 -28.1721 26.103
head 6.01161 -13.6908 7.35379
rclavicle -4.00551e-014 1.74931e-014
rhumerus 78.3533 -72.165 -103.98
rradius 10.148
rwrist 48.3512
rhand -20.8697 14.6152
rfingers 7.12502
rthumb 5.50013 -15.2934
lclavicle -4.00551e-014 1.74931e-014
lhumerus -41.7269 13.8804 44.5657
lradius 44.0128
lwrist 9.93314
lhand -28.6081 21.315
lfingers 7.12502
lthumb -1.97323 51.2856
rfemur -23.8052 -1.40014 4.79178
rtibia 43.9527
rfoot -3.74032 -10.7343
rtoes -15.544
lfemur -34.0401 2.43728 -16.8275
ltibia 76.0374
lfoot -23.7765 13.9706
ltoes 6.4078
317
root 12.2966 16.2662 -11.1465 -15.7098 50.309 -10.1745
lowerback 18.7045 2.36458 1.35407
upperback 8.14505 3.67611 1.74134
thorax -1.74507 1.95438 0.345168
lowerneck -1.72728 -20.0658 -13.7689
upperneck -0.256343 -28.027 25.682
head 5.97633 -13.5948 7.19634
rclavicle -5.13858e-014 3.93594e-014
rhumerus 78.9299 -71.7283 -104.114
rradius 10.2214
rwrist 48.1541
rhand -20.2922 13.9401
rfingers 7.12502
rthumb 6.05772 -15.9533
lclavicle -5.13858e-014 3.93594e-014
lhumerus -42.2712 15.2735 43.8523
lradius 42.2351
lwrist 10.3317
lhand -28.1477 22.0659
lfingers 7.12502
lthumb -1.52857 52.0402
rfemur -23.9862 -0.813533 5.07015
rtibia 43.8175
rfoot -3.62471 -10.4705
rtoes -16.0541
lfemur -34.5369 2.44104 -16.8459
ltibia 76.6995
lfoot -24.0812 14.1173
ltoes 5.06183
318
root 12.3047 16.2909 -11.1072 -15.2959 49.4082 -9.88745
lowerback 18.7452 2.48159 1.60372
upperback 8.181 3.87232 1.8517
thorax -1.71853 2.05478 0.282175
lowerneck -1.9306 -19.9966 -14.1899
upperneck -0.131632 -27.9576 25.8906
head 6.13399 -13.5338 7.28885
rclavicle -1.8487e-014 1.41137e-014
rhumerus 101.247 -70.6033 -127.056
rradius 10.1803
rwrist 55.4973
rhand -19.9635 14.2939
rfingers 7.12502
rthumb 6.37503 -15.5902
lclavicle -1.8487e-014 1.41137e-014
lhumerus -42.8204 16.877 43.1507
lradius 40.489
lwrist 9.91269
lhand -26.6909 22.0294
lfingers 7.12502
lthumb -0.121508 52.0091
rfemur -24.2942 -0.12726 5.3024
rtibia 43.6038
rfoot -3.28518 -10.3622
rtoes -18.9925
lfemur -35.1576 2.45554 -16.9393
ltibia 77.3393
lfoot -24.0575 14.1359
ltoes 4.53612
319
root 12.3137 16.3147 -11.0665 -15.2113 48.5415 -10.1831
lowerback 18.579 2.51163 2.12844
upperback 8.27086 4.00144 2.11744
thorax -1.51994 2.1285 0.254498
lowerneck -1.95539 -19.9047 -15.0788
upperneck -0.401036 -27.8601 26.7386
head 6.32123 -13.4824 7.65013
rclavicle -1.3418e-014 -1.98785e-014
rhumerus 114.52 -67.8517 -140.711
rradius 10.1807
rwrist 60.7387
rhand -19.8352 14.812
rfingers 7.12502
rthumb 6.49887 -15.0683
lclavicle -1.3418e-014 -1.98785e-014
lhumerus -43.5202 18.5883 42.489
lradius 38.9474
lwrist 9.13703
lhand -24.9501 21.8962
lfingers 7.12502
lthumb 1.55979 51.8703
rfemur -24.6347 0.624711 5.92507
rtibia 43.3512
rfoot -2.93174 -10.3571
rtoes -20.2552
lfemur -35.9566 2.51018 -16.6818
ltibia 77.9764
lfoot -23.574 14.3383
ltoes 1.87102
320
root 12.3217 16.3449 -11.0266 -15.6477 47.7938 -11.0812
lowerback 18.6304 2.27914 3.03362
upperback 8.27798 3.85867 2.37505
thorax -1.49659 2.07367 0.0440427
lowerneck -1.89988 -19.7018 -15.1616
upperneck -0.730772 -27.5316 26.9701
head 6.19995 -13.3461 7.81374
rclavicle 3.2551e-014 3.05134e-014
rhumerus 105.132 -68.7079 -130.428
rradius 10.0498
rwrist 56.8022
rhand -19.9315 14.6052
rfingers 7.12502
rthumb 6.40596 -15.278
lclavicle 3.2551e-014 3.05134e-014
lhumerus -44.6274 19.3017 41.6229
lradius 37.6449
lwrist 9.13239
lhand -24.2304 22.4498
lfingers 7.12502
lthumb 2.25483 52.4176
rfemur -24.7645 1.40652 6.98324
rtibia 43.0928
rfoot -2.48771 -10.5585
rtoes -21.956
lfemur -36.7928 2.48025 -16.0234
ltibia 78.6433
lfoot -23.1081 14.021
ltoes -0.572671
321
root 12.3281 16.3769 -10.9841 -15.9043 47.233 -11.6919
lowerback 18.8295 2.06308 3.81531
upperback 8.21602 3.72451 2.54805
thorax -1.62666 2.01788 -0.196966
lowerneck -2.06578 -19.575 -14.7878
upperneck -0.700682 -27.2865 26.4736
head 6.04393 -13.2259 7.66596
rclavicle -4.47266e-015 -4.96962e-015
rhumerus 104.735 -68.6298 -129.683
rradius 9.86865
rwrist 56.7862
rhand -20.4169 15.3467
rfingers 7.12502
rthumb 5.93729 -14.5501
lclavicle -4.47266e-015 -4.96962e-015
lhumerus -45.5771 19.2653 41.0661
lradius 36.3902
lwrist 9.43321
lhand -23.9517 22.4979
lfingers 7.12502
lthumb 2.524 52.4627
rfemur -24.8027 2.2055 7.79194
rtibia 42.8654
rfoot -2.29618 -11.0701
rtoes -23.6332
lfemur -37.5989 2.21671 -15.6181
ltibia 79.2462
lfoot -22.8959 12.9969
ltoes -0.107329
